<?xml version="1.0" encoding="UTF-8"?>
<svg xmlns="http://www.w3.org/2000/svg" width="512" height="512" viewBox="0 0 512 512"
     role="img" aria-labelledby="title desc">
  <title id="title">Farmhouse Longhouse</title>
  <desc id="desc">Broad multigenerational longhouse with raised loft, cart, wash trough, and firewood stack.</desc>
  <!-- Native vector artwork only: no embedded or linked raster content. -->

  <defs>
    <pattern id="roofHatch" width="12" height="12" patternUnits="userSpaceOnUse">
      <path d="M2 0 V12 M8 0 V12" fill="none" stroke="#010206" stroke-width="0.75" opacity="0.17"/>
    </pattern>
    <pattern id="soilHatch" width="18" height="18" patternUnits="userSpaceOnUse">
      <path d="M0 5 Q9 1 18 5 M0 14 Q9 10 18 14" fill="none" stroke="#5D4637" stroke-width="0.8" opacity="0.28"/>
    </pattern>
    <pattern id="woodHatch" width="10" height="10" patternUnits="userSpaceOnUse">
      <path d="M2 0 V10 M7 0 V10" fill="none" stroke="#010206" stroke-width="0.65" opacity="0.16"/>
    </pattern>
  </defs>

  <g id="building" stroke="#010206" stroke-linecap="round" stroke-linejoin="round">

    <path d="M46 166 H466 V243 H46 Z" fill="#C0A286" stroke="none"/>
    <path d="M46 243 H466 V320 H46 Z" fill="#A97C63" stroke="none"/>
    <path d="M46 166 H466 V320 H46 Z" fill="url(#roofHatch)" stroke="none"/>
    <path d="M46 166 H466 V320 H46 Z" fill="none" stroke-width="2.8"/>
    <path d="M46 243 C151 241, 361 245, 466 243"
          fill="none" stroke-width="3"/>

    <g fill="#A9856E" stroke-width="1.5">
      <rect x="40" y="159" width="14" height="14" rx="2"/>
      <rect x="458" y="159" width="14" height="14" rx="2"/>
      <rect x="40" y="313" width="14" height="14" rx="2"/>
      <rect x="458" y="313" width="14" height="14" rx="2"/>
    </g>

    <path d="M52 320 H460 L453 352 H59 Z" fill="#9C7660" stroke-width="2.1"/>
    <path d="M232 320 H280 L276 350 H236 Z" fill="#674C3E" stroke-width="1.8"/>
    <!-- Raised central sleeping loft. -->
    <path d="M184 102 H328 V320 H184 Z" fill="#B89579" stroke="none"/>
    <path d="M184 102 H256 V320 H184 Z" fill="#C7A98D" stroke="none"/>
    <path d="M184 102 H328 V320 H184 Z" fill="url(#roofHatch)" stroke="none"/>
    <path d="M184 102 H328 V320 H184 Z" fill="none" stroke-width="2.8"/>
    <path d="M256 102 V320" fill="none" stroke-width="3"/>
    <!-- Farm cart, wash trough, and stacked firewood. -->
    <path d="M90 370 H166 L174 408 H82 Z" fill="#856550" stroke-width="2"/>
    <circle cx="97" cy="417" r="11" fill="#4D4A46" stroke-width="1.8"/>
    <circle cx="158" cy="417" r="11" fill="#4D4A46" stroke-width="1.8"/>
    <path d="M352 374 H425 L420 402 H357 Z" fill="#7A8F8E" stroke-width="2"/>
    <path d="M361 380 H416 L413 394 H364 Z" fill="#78A0A0" stroke-width="1.2"/>
    <g fill="#73513F" stroke-width="1.3">
      <circle cx="223" cy="386" r="9"/><circle cx="242" cy="386" r="9"/><circle cx="261" cy="386" r="9"/>
      <circle cx="233" cy="403" r="9"/><circle cx="252" cy="403" r="9"/><circle cx="271" cy="403" r="9"/>
    </g>

  </g>
</svg>
