<?xml version='1.0' encoding='UTF-8'?>
<svg xmlns="http://www.w3.org/2000/svg" viewBox="188.1198 124.9608 27.8640 22.2185" width="27.8640" height="22.2185" stroke-linejoin="round" stroke-linecap="round" fill-rule="evenodd" fill="none"><title>Canonical tree 69</title><g transform="translate(250.019500 250.019500) scale(1.000078)" opacity="0.55"><path d=" M -38.437,-108.971 L -38.844,-109.225 L -38.673,-108.746 L -38.681,-108.289 L -38.844,-107.889 L -39.17,-107.592 L -39.528,-107.325 L -40.006,-107.196 L -40.548,-107.2 L -41.112,-107.355 L -40.746,-106.964 L -40.505,-106.529 L -40.392,-106.088 L -40.434,-105.675 L -40.523,-105.278 L -40.758,-104.956 L -41.106,-104.724 L -41.553,-104.613 L -41.836,-104.325 L -42.234,-104.147 L -42.707,-104.082 L -43.224,-104.148 L -43.745,-104.253 L -44.25,-104.479 L -44.705,-104.797 L -45.065,-105.191 L -45.444,-104.892 L -45.965,-104.756 L -46.557,-104.771 L -47.166,-104.963 L -47.772,-105.181 L -48.312,-105.547 L -48.744,-106.005 L -49.002,-106.519 L -49.086,-106.106 L -49.328,-105.772 L -49.691,-105.534 L -50.157,-105.425 L -50.644,-105.354 L -51.179,-105.424 L -51.714,-105.612 L -52.201,-105.918 L -52.741,-106.029 L -53.262,-106.269 L -53.726,-106.605 L -54.086,-107.019 L -54.411,-107.449 L -54.59,-107.906 L -54.626,-108.353 L -54.497,-108.749 L -55.104,-108.882 L -55.681,-109.175 L -56.179,-109.579 L -56.529,-110.067 L -56.85,-110.564 L -56.978,-111.078 L -56.929,-111.559 L -56.678,-111.948 L -57.279,-112.096 L -57.845,-112.399 L -58.328,-112.808 L -58.663,-113.296 L -58.967,-113.792 L -59.079,-114.301 L -59.017,-114.773 L -58.757,-115.152 L -58.842,-115.657 L -58.722,-116.108 L -58.438,-116.471 L -57.992,-116.693 L -57.523,-116.886 L -56.954,-116.909 L -56.353,-116.785 L -55.778,-116.501 L -56.012,-116.872 L -56.139,-117.256 L -56.161,-117.629 L -56.067,-117.965 L -55.926,-118.281 L -55.68,-118.53 L -55.352,-118.703 L -54.955,-118.783 L -55.092,-119.308 L -55.012,-119.789 L -54.755,-120.186 L -54.32,-120.44 L -53.862,-120.669 L -53.288,-120.721 L -52.671,-120.617 L -52.073,-120.341 L -52.25,-120.859 L -52.218,-121.347 L -52.01,-121.764 L -51.621,-122.052 L -51.205,-122.314 L -50.662,-122.41 L -50.062,-122.353 L -49.461,-122.126 L -48.908,-122.201 L -48.3,-122.097 L -47.703,-121.851 L -47.184,-121.465 L -46.684,-121.06 L -46.333,-120.569 L -46.141,-120.052 L -46.158,-119.559 L -45.907,-119.752 L -45.593,-119.876 L -45.234,-119.931 L -44.844,-119.908 L -44.447,-119.846 L -44.051,-119.71 L -43.675,-119.511 L -43.338,-119.255 L -42.958,-119.065 L -42.615,-118.815 L -42.324,-118.523 L -42.102,-118.199 L -41.92,-117.866 L -41.823,-117.527 L -41.811,-117.2 L -41.89,-116.9 L -41.352,-116.621 L -40.901,-116.232 L -40.562,-115.778 L -40.386,-115.296 L -40.097,-115.507 L -39.729,-115.63 L -39.31,-115.664 L -38.863,-115.6 L -38.413,-115.496 L -37.976,-115.302 L -37.576,-115.036 L -37.243,-114.708 L -36.828,-114.466 L -36.472,-114.156 L -36.189,-113.802 L -36.005,-113.423 L -35.866,-113.041 L -35.842,-112.669 L -35.923,-112.328 L -36.115,-112.042 L -35.77,-111.723 L -35.51,-111.361 L -35.343,-110.98 L -35.289,-110.603 L -35.283,-110.235 L -35.392,-109.906 L -35.6,-109.631 L -35.904,-109.433 L -36.078,-109.138 L -36.353,-108.914 L -36.704,-108.768 L -37.115,-108.718 L -37.544,-108.709 L -37.993,-108.798 L -38.437,-108.971" fill="#9699AE"/></g><g transform="translate(250.019500 250.019500) scale(1.000078)"><path d=" M -45.085,-112.809 L -45.374,-112.995 L -45.299,-112.572 L -45.362,-112.146 L -45.539,-111.754 L -45.832,-111.439 L -46.147,-111.146 L -46.538,-110.967 L -46.963,-110.904 L -47.387,-110.978 L -47.148,-110.66 L -47.012,-110.286 L -46.978,-109.89 L -47.063,-109.502 L -47.181,-109.122 L -47.406,-108.794 L -47.708,-108.536 L -48.073,-108.377 L -48.331,-108.075 L -48.666,-107.861 L -49.045,-107.741 L -49.443,-107.739 L -49.839,-107.772 L -50.209,-107.919 L -50.527,-108.158 L -50.76,-108.48 L -51.096,-108.155 L -51.522,-107.964 L -51.985,-107.905 L -52.44,-108.008 L -52.889,-108.136 L -53.268,-108.409 L -53.55,-108.78 L -53.69,-109.226 L -53.807,-108.831 L -54.039,-108.491 L -54.353,-108.225 L -54.733,-108.067 L -55.124,-107.941 L -55.536,-107.94 L -55.933,-108.048 L -56.278,-108.272 L -56.688,-108.308 L -57.068,-108.466 L -57.391,-108.721 L -57.622,-109.061 L -57.824,-109.42 L -57.908,-109.823 L -57.882,-110.233 L -57.732,-110.616 L -58.192,-110.665 L -58.609,-110.866 L -58.95,-111.179 L -59.165,-111.589 L -59.356,-112.011 L -59.393,-112.472 L -59.294,-112.925 L -59.049,-113.317 L -59.503,-113.38 L -59.911,-113.592 L -60.24,-113.912 L -60.442,-114.323 L -60.62,-114.746 L -60.645,-115.205 L -60.537,-115.651 L -60.286,-116.035 L -60.291,-116.494 L -60.141,-116.927 L -59.873,-117.299 L -59.495,-117.56 L -59.102,-117.798 L -58.653,-117.89 L -58.196,-117.848 L -57.779,-117.656 L -57.917,-117.972 L -57.969,-118.312 L -57.941,-118.656 L -57.825,-118.98 L -57.675,-119.291 L -57.451,-119.552 L -57.172,-119.754 L -56.85,-119.877 L -56.892,-120.348 L -56.77,-120.804 L -56.519,-121.204 L -56.146,-121.494 L -55.758,-121.763 L -55.301,-121.882 L -54.829,-121.862 L -54.393,-121.681 L -54.467,-122.14 L -54.382,-122.597 L -54.168,-123.009 L -53.826,-123.325 L -53.467,-123.62 L -53.028,-123.776 L -52.564,-123.798 L -52.12,-123.661 L -51.676,-123.799 L -51.211,-123.778 L -50.772,-123.623 L -50.413,-123.329 L -50.07,-123.014 L -49.854,-122.602 L -49.768,-122.145 L -49.842,-121.686 L -49.621,-121.896 L -49.359,-122.05 L -49.07,-122.146 L -48.767,-122.172 L -48.462,-122.164 L -48.168,-122.087 L -47.897,-121.949 L -47.664,-121.753 L -47.389,-121.623 L -47.15,-121.434 L -46.957,-121.198 L -46.823,-120.925 L -46.721,-120.638 L -46.688,-120.336 L -46.719,-120.033 L -46.818,-119.745 L -46.43,-119.553 L -46.123,-119.247 L -45.913,-118.868 L -45.834,-118.442 L -45.581,-118.673 L -45.277,-118.833 L -44.943,-118.917 L -44.6,-118.913 L -44.259,-118.872 L -43.94,-118.745 L -43.659,-118.548 L -43.438,-118.285 L -43.142,-118.111 L -42.9,-117.867 L -42.721,-117.574 L -42.624,-117.244 L -42.562,-116.907 L -42.589,-116.564 L -42.695,-116.237 L -42.881,-115.949 L -42.649,-115.695 L -42.49,-115.391 L -42.406,-115.058 L -42.41,-114.715 L -42.451,-114.373 L -42.577,-114.054 L -42.775,-113.773 L -43.038,-113.552 L -43.212,-113.256 L -43.455,-113.014 L -43.749,-112.836 L -44.078,-112.738 L -44.416,-112.677 L -44.758,-112.703 L -45.085,-112.809" fill="#4F6B65" stroke="#010206" stroke-width="1"/><path d=" M -46.349,-114.681 L -46.69,-114.552 M -46.69,-114.552 L -46.852,-113.96 M -46.852,-113.96 L -47.214,-113.464 M -47.214,-113.464 L -47.709,-113.101 M -47.709,-113.101 L -48.301,-112.938 M -48.301,-112.938 L -48.315,-112.442 M -48.315,-112.442 L -48.475,-111.972 M -48.475,-111.972 L -48.752,-111.559 M -48.752,-111.559 L -49.137,-111.247 M -49.137,-111.247 L -49.549,-110.969 M -49.549,-110.969 L -50.024,-110.825 M -50.024,-110.825 L -50.52,-110.809 M -50.52,-110.809 L -50.999,-110.939 M -50.999,-110.939 L -51.303,-110.811 M -51.303,-110.811 L -51.627,-110.746 M -51.627,-110.746 L -51.957,-110.743 M -51.957,-110.743 L -52.281,-110.805 M -52.281,-110.805 L -52.595,-110.905 M -52.595,-110.905 L -52.884,-111.066 M -52.884,-111.066 L -53.137,-111.278 M -53.342,-111.536 L -53.765,-111.254 M -53.765,-111.254 L -54.254,-111.111 M -54.254,-111.111 L -54.762,-111.103 M -54.762,-111.103 L -55.25,-111.248 M -55.25,-111.248 L -55.723,-111.434 M -56.417,-112.166 L -56.576,-112.649 M -56.576,-112.649 L -57.125,-113.002 M -57.63,-114.809 L -57.979,-115.233 M -56.614,-118.28 L -56.635,-118.788 M -55.156,-121.145 L -54.877,-121.326 M -54.566,-121.447 L -54.238,-121.507 M -54.238,-121.507 L -53.905,-121.5 M -53.157,-122.297 L -52.639,-122.495 M -52.086,-122.515 L -51.532,-122.496 M -51.532,-122.496 L -51.014,-122.299 M -51.014,-122.299 L -50.573,-121.964 M -50.573,-121.964 L -50.264,-121.505 M -50.264,-121.505 L -49.866,-121.586 M -49.866,-121.586 L -49.459,-121.568 M -49.067,-121.459 L -48.714,-121.259 M -48.714,-121.259 L -48.384,-121.021 M -48.384,-121.021 L -48.123,-120.709 M -48.123,-120.709 L -47.937,-120.348 M -47.937,-120.348 L -47.845,-119.952 M -47.845,-119.952 L -47.574,-119.755 M -47.574,-119.755 L -47.348,-119.509 M -47.348,-119.509 L -47.172,-119.223 M -47.172,-119.223 L -47.058,-118.909 M -46.7,-118.839 L -46.366,-118.693 M -46.366,-118.693 L -46.07,-118.481 M -46.07,-118.481 L -45.826,-118.21 M -45.826,-118.21 L -45.616,-117.912 M -45.616,-117.912 L -45.476,-117.576 M -45.476,-117.576 L -45.407,-117.218 M -45.407,-117.218 L -45.419,-116.853 M -45.419,-116.853 L -45.346,-116.496 M -45.346,-116.496 L -45.354,-116.132 M -45.354,-116.132 L -45.435,-115.776 M -45.435,-115.776 L -45.592,-115.447 M -45.592,-115.447 L -45.787,-115.139 M -45.787,-115.139 L -46.044,-114.881 M -46.044,-114.881 L -46.349,-114.681 M -48.45,-117.01 L -48.664,-116.331 M -48.664,-116.331 L -49.099,-115.758 M -49.099,-115.758 L -49.671,-115.322 M -49.671,-115.322 L -49.989,-114.889 M -50.389,-114.529 L -50.85,-114.251 M -50.85,-114.251 L -51.357,-114.073 M -51.357,-114.073 L -52.116,-114.154 M -52.116,-114.154 L -52.822,-114.446 M -52.822,-114.446 L -53.37,-114.46 M -54.402,-114.815 L -54.843,-115.141 M -49.386,-119.706 L -48.894,-119.054 M -48.894,-119.054 L -48.569,-118.42 M -48.569,-118.42 L -48.424,-117.722 M -48.424,-117.722 L -48.45,-117.01" stroke="#010206" stroke-width="0.5"/></g></svg>