<?xml version='1.0' encoding='UTF-8'?>
<svg xmlns="http://www.w3.org/2000/svg" viewBox="403.9016 203.3400 26.7869 25.6728" width="642" height="616" stroke-linejoin="round" stroke-linecap="round" fill-rule="evenodd" fill="none" preserveAspectRatio="none"><title>Canonical tree 58</title><g transform="translate(250.019500 250.019500) scale(1.000078)" opacity="0.55"><path d=" M 178.091,-29.951 L 177.688,-29.907 L 178.201,-29.645 L 178.645,-29.287 L 178.995,-28.868 L 179.214,-28.413 L 179.386,-27.955 L 179.405,-27.511 L 179.285,-27.111 L 179.021,-26.791 L 178.977,-26.364 L 178.782,-26.001 L 178.465,-25.722 L 178.036,-25.558 L 177.579,-25.434 L 177.059,-25.442 L 176.519,-25.566 L 175.999,-25.81 L 176.032,-25.354 L 175.903,-24.948 L 175.64,-24.617 L 175.248,-24.396 L 174.822,-24.213 L 174.312,-24.164 L 173.765,-24.236 L 173.221,-24.44 L 173.407,-23.926 L 173.402,-23.434 L 173.229,-23.003 L 172.881,-22.684 L 172.497,-22.395 L 171.985,-22.255 L 171.403,-22.258 L 170.798,-22.424 L 170.264,-22.321 L 169.666,-22.383 L 169.064,-22.583 L 168.515,-22.923 L 167.985,-23.291 L 167.577,-23.754 L 167.308,-24.261 L 167.224,-24.769 L 166.625,-24.673 L 165.961,-24.777 L 165.305,-25.04 L 164.735,-25.461 L 164.183,-25.902 L 163.796,-26.439 L 163.587,-27.006 L 163.611,-27.544 L 163.2,-27.353 L 162.704,-27.29 L 162.167,-27.347 L 161.626,-27.534 L 161.095,-27.758 L 160.619,-28.089 L 160.228,-28.492 L 159.961,-28.943 L 159.519,-29.308 L 159.187,-29.739 L 158.976,-30.199 L 158.917,-30.654 L 158.91,-31.099 L 159.058,-31.489 L 159.336,-31.803 L 159.736,-32.007 L 159.357,-32.073 L 158.979,-32.202 L 158.617,-32.386 L 158.287,-32.62 L 157.982,-32.878 L 157.729,-33.171 L 157.536,-33.485 L 157.413,-33.808 L 157.224,-34.122 L 157.107,-34.445 L 157.061,-34.764 L 157.093,-35.065 L 157.17,-35.35 L 157.321,-35.598 L 157.536,-35.801 L 157.811,-35.949 L 157.695,-36.325 L 157.683,-36.688 L 157.768,-37.021 L 157.952,-37.304 L 158.181,-37.557 L 158.493,-37.737 L 158.865,-37.841 L 159.284,-37.858 L 158.696,-37.964 L 158.124,-38.216 L 157.612,-38.576 L 157.213,-39.025 L 156.851,-39.491 L 156.649,-39.99 L 156.605,-40.478 L 156.744,-40.911 L 156.589,-41.41 L 156.617,-41.882 L 156.804,-42.292 L 157.154,-42.593 L 157.54,-42.861 L 158.045,-42.987 L 158.613,-42.976 L 159.201,-42.812 L 159.157,-43.3 L 159.297,-43.732 L 159.587,-44.079 L 160.021,-44.299 L 160.485,-44.482 L 161.038,-44.512 L 161.625,-44.406 L 162.198,-44.155 L 162.766,-44.143 L 163.354,-43.978 L 163.913,-43.691 L 164.386,-43.292 L 164.831,-42.87 L 165.134,-42.386 L 165.29,-41.886 L 165.263,-41.414 L 165.667,-41.73 L 166.22,-41.874 L 166.847,-41.858 L 167.494,-41.657 L 168.137,-41.426 L 168.71,-41.04 L 169.171,-40.556 L 169.451,-40.012 L 169.984,-40.219 L 170.627,-40.227 L 171.301,-40.065 L 171.933,-39.721 L 172.553,-39.355 L 173.041,-38.858 L 173.369,-38.3 L 173.47,-37.733 L 173.814,-37.776 L 174.181,-37.755 L 174.558,-37.673 L 174.93,-37.53 L 175.291,-37.354 L 175.622,-37.128 L 175.914,-36.863 L 176.151,-36.567 L 176.439,-36.299 L 176.671,-36.001 L 176.842,-35.686 L 176.942,-35.366 L 176.998,-35.049 L 176.978,-34.748 L 176.887,-34.472 L 176.723,-34.235 L 177.161,-34.119 L 177.584,-33.925 L 177.972,-33.666 L 178.303,-33.352 L 178.598,-33.018 L 178.81,-32.655 L 178.935,-32.283 L 178.957,-31.921 L 179.098,-31.55 L 179.138,-31.185 L 179.083,-30.845 L 178.928,-30.549 L 178.727,-30.28 L 178.441,-30.079 L 178.091,-29.951" fill="#9699AE"/></g><g transform="translate(250.019500 250.019500) scale(1.000078)"><path d=" M 171.051,-34.015 L 170.73,-33.925 L 171.1,-33.745 L 171.405,-33.467 L 171.628,-33.121 L 171.744,-32.726 L 171.822,-32.322 L 171.782,-31.912 L 171.639,-31.526 L 171.392,-31.196 L 171.304,-30.794 L 171.106,-30.433 L 170.822,-30.134 L 170.465,-29.929 L 170.091,-29.758 L 169.683,-29.7 L 169.274,-29.749 L 168.895,-29.911 L 168.865,-29.492 L 168.714,-29.099 L 168.466,-28.759 L 168.13,-28.505 L 167.773,-28.283 L 167.367,-28.174 L 166.946,-28.173 L 166.543,-28.295 L 166.626,-27.841 L 166.561,-27.384 L 166.372,-26.962 L 166.059,-26.622 L 165.722,-26.307 L 165.302,-26.114 L 164.845,-26.045 L 164.39,-26.124 L 163.958,-25.962 L 163.496,-25.945 L 163.048,-26.057 L 162.658,-26.305 L 162.288,-26.581 L 162.024,-26.96 L 161.875,-27.397 L 161.872,-27.859 L 161.39,-27.696 L 160.88,-27.71 L 160.398,-27.873 L 160.002,-28.194 L 159.623,-28.534 L 159.385,-28.985 L 159.291,-29.486 L 159.377,-29.988 L 159.03,-29.76 L 158.632,-29.641 L 158.218,-29.627 L 157.816,-29.733 L 157.426,-29.876 L 157.094,-30.125 L 156.836,-30.45 L 156.682,-30.836 L 156.38,-31.121 L 156.172,-31.48 L 156.063,-31.881 L 156.074,-32.296 L 156.123,-32.708 L 156.288,-33.089 L 156.545,-33.415 L 156.884,-33.653 L 156.595,-33.668 L 156.314,-33.741 L 156.052,-33.867 L 155.822,-34.043 L 155.614,-34.246 L 155.451,-34.486 L 155.338,-34.753 L 155.282,-35.038 L 155.173,-35.307 L 155.12,-35.592 L 155.124,-35.883 L 155.186,-36.166 L 155.282,-36.44 L 155.431,-36.689 L 155.625,-36.904 L 155.86,-37.076 L 155.815,-37.41 L 155.85,-37.746 L 155.958,-38.066 L 156.138,-38.351 L 156.349,-38.614 L 156.616,-38.82 L 156.922,-38.963 L 157.253,-39.03 L 156.805,-39.056 L 156.386,-39.22 L 156.028,-39.49 L 155.771,-39.858 L 155.543,-40.246 L 155.446,-40.684 L 155.472,-41.132 L 155.635,-41.551 L 155.575,-41.996 L 155.656,-42.438 L 155.853,-42.841 L 156.165,-43.164 L 156.502,-43.461 L 156.914,-43.64 L 157.359,-43.7 L 157.8,-43.62 L 157.827,-44.068 L 157.99,-44.487 L 158.261,-44.845 L 158.629,-45.102 L 159.016,-45.33 L 159.454,-45.426 L 159.903,-45.401 L 160.321,-45.238 L 160.766,-45.298 L 161.208,-45.217 L 161.611,-45.02 L 161.934,-44.708 L 162.231,-44.371 L 162.41,-43.959 L 162.47,-43.514 L 162.39,-43.072 L 162.747,-43.415 L 163.199,-43.618 L 163.69,-43.68 L 164.174,-43.574 L 164.65,-43.439 L 165.053,-43.151 L 165.355,-42.759 L 165.508,-42.288 L 165.952,-42.547 L 166.459,-42.634 L 166.968,-42.566 L 167.422,-42.325 L 167.864,-42.062 L 168.186,-41.661 L 168.374,-41.183 L 168.384,-40.669 L 168.659,-40.752 L 168.945,-40.778 L 169.231,-40.748 L 169.506,-40.662 L 169.767,-40.543 L 170,-40.374 L 170.196,-40.164 L 170.346,-39.919 L 170.539,-39.705 L 170.684,-39.457 L 170.78,-39.186 L 170.819,-38.901 L 170.824,-38.614 L 170.771,-38.331 L 170.665,-38.064 L 170.507,-37.824 L 170.837,-37.771 L 171.145,-37.642 L 171.418,-37.45 L 171.639,-37.2 L 171.83,-36.926 L 171.951,-36.615 L 172.003,-36.285 L 171.976,-35.952 L 172.041,-35.624 L 172.027,-35.291 L 171.942,-34.968 L 171.783,-34.674 L 171.592,-34.4 L 171.343,-34.178 L 171.051,-34.015" fill="#446158" stroke="#010206" stroke-width="1"/><path d=" M 169.523,-35.725 L 169.228,-35.393 M 169.228,-35.393 L 169.457,-34.928 M 169.457,-34.928 L 169.544,-34.416 M 169.544,-34.416 L 169.496,-33.899 M 169.496,-33.899 L 169.303,-33.418 M 169.303,-33.418 L 169.065,-32.957 M 169.065,-32.957 L 168.706,-32.583 M 168.706,-32.583 L 168.262,-32.313 M 168.262,-32.313 L 167.76,-32.182 M 167.76,-32.182 L 167.477,-31.643 M 167.477,-31.643 L 167.03,-31.23 M 167.03,-31.23 L 166.484,-30.961 M 166.484,-30.961 L 165.879,-30.89 M 165.879,-30.89 L 165.592,-30.405 M 165.592,-30.405 L 165.17,-30.033 M 165.17,-30.033 L 164.662,-29.789 M 164.662,-29.789 L 164.104,-29.715 M 164.104,-29.715 L 163.542,-29.685 M 163.542,-29.685 L 162.998,-29.83 M 162.998,-29.83 L 162.513,-30.117 M 162.513,-30.117 L 162.142,-30.541 M 162.142,-30.541 L 161.783,-30.558 M 161.783,-30.558 L 161.436,-30.648 M 161.436,-30.648 L 161.111,-30.802 M 161.111,-30.802 L 160.825,-31.019 M 160.825,-31.019 L 160.566,-31.267 M 160.146,-32.244 L 159.626,-32.287 M 159.626,-32.287 L 159.14,-32.478 M 159.14,-32.478 L 158.72,-32.788 M 158.72,-32.788 L 158.407,-33.206 M 158.407,-33.206 L 158.134,-33.65 M 158.152,-35.176 L 157.816,-35.388 M 157.816,-35.388 L 157.535,-35.67 M 157.332,-37.914 L 157.437,-38.405 M 160.906,-43.428 L 161.375,-43.416 M 161.375,-43.416 L 161.823,-43.282 M 161.823,-43.282 L 162.228,-43.045 M 162.228,-43.045 L 162.556,-42.711 M 163.223,-42.916 L 163.918,-42.855 M 163.918,-42.855 L 164.56,-42.58 M 164.56,-42.58 L 165.05,-42.084 M 165.769,-42.117 L 166.12,-42.028 M 166.12,-42.028 L 166.445,-41.87 M 166.445,-41.87 L 166.749,-41.674 M 166.749,-41.674 L 167.007,-41.42 M 167.007,-41.42 L 167.211,-41.122 M 167.211,-41.122 L 167.351,-40.789 M 167.351,-40.789 L 167.736,-40.703 M 167.736,-40.703 L 168.093,-40.535 M 168.093,-40.535 L 168.408,-40.297 M 168.408,-40.297 L 168.662,-39.995 M 168.662,-39.995 L 168.879,-39.665 M 168.879,-39.665 L 169.018,-39.296 M 169.018,-39.296 L 169.078,-38.906 M 169.078,-38.906 L 169.05,-38.512 M 169.05,-38.512 L 169.38,-38.217 M 169.38,-38.217 L 169.627,-37.848 M 169.627,-37.848 L 169.784,-37.433 M 169.784,-37.433 L 169.834,-36.992 M 169.834,-36.992 L 169.835,-36.549 M 169.835,-36.549 L 169.726,-36.119 M 169.726,-36.119 L 169.523,-35.725 M 166.432,-35.418 L 166.058,-34.994 M 166.058,-34.994 L 165.521,-34.515 M 164.882,-34.186 L 164.328,-33.948 M 164.328,-33.948 L 163.737,-33.833 M 163.737,-33.833 L 163.135,-33.837 M 165.143,-40.884 L 165.802,-40.373 M 166.864,-38.95 L 167.089,-37.985" stroke="#010206" stroke-width="0.5"/></g></svg>