<?xml version='1.0' encoding='UTF-8'?>
<svg xmlns="http://www.w3.org/2000/svg" viewBox="256.4341 438.5283 37.6997 25.6168" width="688" height="688" stroke-linejoin="round" stroke-linecap="round" fill-rule="evenodd" fill="none" preserveAspectRatio="none"><title>Canonical building 1</title><g transform="translate(250.019500 250.019500) scale(1.000078)"><path d=" M 32.643,189.744 L 34.505,191.756 L 8.668,202.678 L 7.664,200.303 L 32.643,189.744" fill="#C3A28A"/><path d=" M 36.366,198.549 L 34.505,191.756 L 8.668,202.678 L 11.386,209.109 L 36.366,198.549" fill="#766360"/><path d=" M 35.125,194.021 L 30.96,195.782 M 9.574,204.822 L 16.731,201.796" stroke="#010206" stroke-width="0.5"/><path d=" M 33.884,191.085 L 25.465,194.645 M 8.333,201.887 L 10.955,200.778" stroke="#010206" stroke-width="0.287"/><path d=" M 35.745,196.285 L 33.89,197.069 M 10.48,206.965 L 14.054,205.455" stroke="#010206" stroke-width="0.5"/><path d=" M 33.264,190.415 L 32.534,190.723 M 7.998,201.095 L 18.37,196.71" stroke="#010206" stroke-width="0.287"/><path d=" M 8.668,202.678 L 7.664,200.303 L 32.643,189.744 L 34.505,191.756 L 36.366,198.549 L 11.386,209.109 L 8.668,202.678" stroke="#010206" stroke-width="1"/><path d=" M 34.505,191.756 L 8.668,202.678" stroke="#010206" stroke-width="0.5"/></g></svg>