<?xml version='1.0' encoding='UTF-8'?>
<svg xmlns="http://www.w3.org/2000/svg" viewBox="184.0575 310.1233 37.1647 32.1143" width="37.1647" height="32.1143" stroke-linejoin="round" stroke-linecap="round" fill-rule="evenodd" fill="none"><title>Canonical building 37</title><g transform="translate(250.019500 250.019500) scale(1.000078)" opacity="0.55"><path d=" M -32.089,79.239 L -39.788,74.794 L -37.743,70.388 L -30.045,74.833 L -32.089,79.239" fill="#9699AE" stroke="#9699AE" stroke-width="0.5"/><path d=" M -37.528,90.961 L -45.226,86.516 L -39.788,74.794 L -32.089,79.239 L -37.528,90.961" fill="#9699AE" stroke="#9699AE" stroke-width="0.5"/><path d=" M -57.008,81.922 L -64.707,77.477 L -45.226,86.516 L -37.528,90.961 L -57.008,81.922" fill="#9699AE" stroke="#9699AE" stroke-width="0.5"/></g><g transform="translate(250.019500 250.019500) scale(1.000078)"><path d=" M -49.159,73.044 L -50.569,76.084 L -40.829,80.603 L -39.419,77.563 L -49.159,73.044" fill="#6C5C59"/><path d=" M -50.569,76.084 L -40.829,80.603 L -39.419,77.563 L -49.159,73.044" stroke="#010206" stroke-width="1"/><path d=" M -37.743,70.388 L -39.788,74.794 L -60.965,64.969 L -57.223,61.349 L -37.743,70.388" fill="#977F70"/><path d=" M -45.226,86.516 L -39.788,74.794 L -60.965,64.969 L -64.707,77.477 L -45.226,86.516" fill="#8D766B"/><path d=" M -40.694,76.748 L -41.353,76.442 M -61.589,67.053 L -60.716,67.458" stroke="#010206" stroke-width="0.5"/><path d=" M -39.447,74.06 L -43.873,72.007 M -60.341,64.365 L -52.02,68.226" stroke="#010206" stroke-width="0.273"/><path d=" M -41.601,78.701 L -47.153,76.125 M -62.212,69.138 L -58.531,70.846" stroke="#010206" stroke-width="0.5"/><path d=" M -39.106,73.325 L -39.222,73.272 M -59.718,63.762 L -56.929,65.056" stroke="#010206" stroke-width="0.273"/><path d=" M -42.507,80.655 L -45.733,79.158 M -62.836,71.223 L -61.669,71.764" stroke="#010206" stroke-width="0.5"/><path d=" M -38.766,72.591 L -56.962,64.148 M -59.094,63.159 L -53.195,65.896" stroke="#010206" stroke-width="0.273"/><path d=" M -43.414,82.609 L -43.696,82.478 M -63.459,73.308 L -55.336,77.077" stroke="#010206" stroke-width="0.5"/><path d=" M -38.425,71.857 L -39.599,71.312 M -58.471,62.556 L -56.152,63.632" stroke="#010206" stroke-width="0.273"/><path d=" M -44.32,84.562 L -47.415,83.126 M -64.083,75.393 L -61.352,76.66" stroke="#010206" stroke-width="0.5"/><path d=" M -38.084,71.122 L -43.65,68.54 M -57.847,61.953 L -53.966,63.753" stroke="#010206" stroke-width="0.273"/><path d=" M -60.965,64.969 L -57.223,61.349 L -37.743,70.388 L -39.788,74.794 L -45.226,86.516 L -64.707,77.477 L -60.965,64.969" stroke="#010206" stroke-width="1"/><path d=" M -39.788,74.794 L -60.965,64.969" stroke="#010206" stroke-width="0.5"/></g></svg>