<?xml version='1.0' encoding='UTF-8'?>
<svg xmlns="http://www.w3.org/2000/svg" viewBox="179.6891 144.0163 22.6676 22.9636" width="22.6676" height="22.9636" stroke-linejoin="round" stroke-linecap="round" fill-rule="evenodd" fill="none"><title>Canonical building 48</title><g transform="translate(250.019500 250.019500) scale(1.000078)" opacity="0.55"><path d=" M -53.261,-86.569 L -58.123,-89.376 L -53.771,-90.987 L -48.909,-88.179 L -53.261,-86.569" fill="#9699AE" stroke="#9699AE" stroke-width="0.5"/><path d=" M -59.44,-84.283 L -64.302,-87.09 L -58.123,-89.376 L -53.261,-86.569 L -59.44,-84.283" fill="#9699AE" stroke="#9699AE" stroke-width="0.5"/></g><g transform="translate(250.019500 250.019500) scale(1.000078)"><path d=" M -59.219,-94.943 L -62.741,-93.64 L -60.354,-87.19 L -56.833,-88.493 L -59.219,-94.943" fill="#6D5C59"/><path d=" M -62.741,-93.64 L -60.354,-87.19 L -56.833,-88.493 L -59.219,-94.943" stroke="#010206" stroke-width="1"/><path d=" M -53.771,-90.987 L -58.123,-89.376 L -63.809,-104.745 L -58.544,-103.886 L -53.771,-90.987" fill="#705F5B"/><path d=" M -64.302,-87.09 L -58.123,-89.376 L -63.809,-104.745 L -69.075,-99.99 L -64.302,-87.09" fill="#B1937D"/><path d=" M -59.668,-88.805 L -61.127,-92.749 M -65.126,-103.556 L -64.872,-102.87" stroke="#010206" stroke-width="0.5"/><path d=" M -57.035,-89.779 L -60.13,-98.144 M -62.493,-104.53 L -61.717,-102.433" stroke="#010206" stroke-width="0.413"/><path d=" M -61.212,-88.233 L -63.289,-93.846 M -66.442,-102.367 L -65.871,-100.825" stroke="#010206" stroke-width="0.5"/><path d=" M -55.947,-90.182 L -56.07,-90.515 M -61.177,-104.316 L -60.123,-101.469" stroke="#010206" stroke-width="0.413"/><path d=" M -62.757,-87.662 L -64.127,-91.364 M -67.758,-101.179 L -67.408,-100.232" stroke="#010206" stroke-width="0.5"/><path d=" M -54.859,-90.584 L -57.93,-98.884 M -59.86,-104.101 L -59.235,-102.411" stroke="#010206" stroke-width="0.413"/><path d=" M -63.809,-104.745 L -58.544,-103.886 L -53.771,-90.987 L -58.123,-89.376 L -64.302,-87.09 L -69.075,-99.99 L -63.809,-104.745" stroke="#010206" stroke-width="1"/><path d=" M -58.123,-89.376 L -63.809,-104.745" stroke="#010206" stroke-width="0.5"/></g></svg>